<svg xmlns="http://www.w3.org/2000/svg" width="960" height="476" fill="none" viewBox="0 0 960 476"><g clip-path="url(#a)"><path fill="#000" fill-opacity=".996" stroke="#191919" stroke-width="14" d="M557.583 7c-1.509.009-4.721.305-6.469.938l-3.5 1.5 8.656 35.938-124.81.28c-2.436.006-4.887-.013-7.343-.03a931.048 931.048 0 0 1-14.844-.22 1188.08 1188.08 0 0 1-22.062-.718c-.396-.016-.792-.046-1.188-.062-14.932-.63-30.007-1.492-45.03-2.438-20.327-1.283-40.52-2.707-60.125-3.875-14.528-.865-28.732-1.58-42.375-2-9.369-.289-18.464-.457-27.25-.406a519.5 519.5 0 0 0-12.719.219c-4.15.125-8.38.355-12.656.656-2.138.15-4.278.31-6.437.5-6.469.568-13.045 1.321-19.594 2.187h-.031c-4.361.584-8.716 1.22-13.062 1.907-4.344.68-8.674 1.397-12.937 2.156-4.254.756-8.47 1.565-12.594 2.375-.01.002-.022-.002-.032 0-2.066.406-4.07.804-6.093 1.219a836.016 836.016 0 0 0-17.5 3.78c-.01.003-.02-.001-.03 0a896.17 896.17 0 0 0-10.72 2.5 913.556 913.556 0 0 0-18.53 4.657 739.237 739.237 0 0 0-18.095 5 301.071 301.071 0 0 0-3.813 1.125l-13.687 3.75c-.902.249-1.778.693-2.625 1.312-.288.21-.562.436-.844.688-1.1.98-2.15 2.27-3.156 3.844-.004.007.005.024 0 .03-.5.786-1.022 1.641-1.5 2.563-.004.008.004.024 0 .032a47.1 47.1 0 0 0-1.406 2.968c-.004.01.004.023 0 .032-3.667 8.51-6.62 21.13-8.937 36.219-.002.01.001.02 0 .03-.036.235-.059.484-.094.72a413.044 413.044 0 0 0-1.438 10.344c-.03.242-.063.475-.093.718a539.087 539.087 0 0 0-1.375 12.47v.03a603.54 603.54 0 0 0-.625 6.47v.03c-.196 2.175-.384 4.35-.563 6.563v.031a810.01 810.01 0 0 0-.969 13.5v.031c-.872 13.684-1.46 27.79-1.78 41.562v.032a1153.4 1153.4 0 0 0-.313 26.907c0 .967.027 1.963.03 2.937-.003.975-.03 1.97-.03 2.938 0 8.693.098 17.717.312 26.906v.03c.322 13.775.91 27.879 1.781 41.563v.031c.29 4.554.611 9.062.97 13.5V323c.177 2.214.366 4.388.561 6.563v.03c.196 2.175.412 4.341.625 6.47v.03c.43 4.267.874 8.427 1.375 12.47.03.243.064.476.094.719.446 3.545.933 7.012 1.438 10.344.035.235.058.484.093.718.002.01 0 .022 0 .032 2.318 15.087 5.27 27.709 8.938 36.219.004.009-.004.022 0 .03a47.073 47.073 0 0 0 1.406 2.97c.004.008-.004.023 0 .03.478.923 1 1.779 1.5 2.563.005.007-.005.025 0 .032 1.005 1.573 2.057 2.864 3.156 3.843.282.252.556.477.844.688.847.62 1.723 1.064 2.625 1.312l13.687 3.75s1.34.41 3.812 1.125a739.886 739.886 0 0 0 18.094 5 914.813 914.813 0 0 0 18.531 4.657c3.432.824 7.003 1.655 10.72 2.5.01.002.02-.002.03 0a835.378 835.378 0 0 0 17.5 3.78c2.025.415 4.028.814 6.094 1.22.01.002.022-.002.032 0 4.123.81 8.34 1.618 12.594 2.375 4.305.763 8.618 1.482 12.937 2.156 4.343.68 8.69 1.327 13.062 1.906h.03c6.55.866 13.126 1.619 19.595 2.187 2.16.19 4.3.35 6.437.5 4.276.301 8.505.531 12.656.657 4.151.125 8.403.194 12.72.218 8.785.05 17.88-.117 27.25-.406 13.641-.42 27.846-1.135 42.374-2 19.604-1.167 39.798-2.592 60.124-3.875 15.024-.946 30.098-1.807 45.031-2.437.396-.017.792-.046 1.188-.063 7.393-.306 14.77-.551 22.062-.719 4.978-.114 9.931-.184 14.844-.218 2.456-.018 4.907-.037 7.343-.032l124.81.282-8.656 35.938 3.5 1.5c1.748.632 4.96.928 6.469.937.902.003 1.801-.081 2.687-.25.311-.058.624-.14.938-.219.304-.075.632-.156.937-.25a17.897 17.897 0 0 0 1.875-.687c1.822-.794 3.535-1.931 4.782-3.313l.03-.03a8.316 8.316 0 0 0 1.47-2.282l12.155-31.312 109.94.25c.747.374 1.477.745 2.22 1.094a93.696 93.696 0 0 0 8.843 3.625c1.447.505 2.905.974 4.375 1.406 5.1 1.508 10.188 2.552 15.344 3.25 2.946.4 5.926.694 8.937.906 1.506.106 3.034.18 4.563.25 3.057.14 6.138.213 9.312.25 6.347.074 12.979 0 20 0 10.41 0 20.322-.53 29.781-1.562a238.31 238.31 0 0 0 11.125-1.469 210.66 210.66 0 0 0 20.906-4.375c1.67-.439 3.336-.899 4.969-1.375a180.698 180.698 0 0 0 14.187-4.781c1.524-.585 3.042-1.16 4.53-1.781a164.714 164.714 0 0 0 8.72-3.938c1.418-.69 2.835-1.4 4.218-2.125a155.627 155.627 0 0 0 8.094-4.562 150.829 150.829 0 0 0 3.875-2.438c6.394-4.12 12.363-8.625 17.906-13.53a147.25 147.25 0 0 0 12.5-12.47c.005-.006-.005-.025 0-.031a150.85 150.85 0 0 0 2.875-3.313c.005-.006-.005-.025 0-.03a153.492 153.492 0 0 0 2.781-3.407c.005-.006-.005-.025 0-.031a155.169 155.169 0 0 0 7.75-10.72c.005-.006-.005-.023 0-.03.809-1.229 1.629-2.465 2.406-3.72.005-.007-.005-.023 0-.03 2.34-3.778 4.567-7.653 6.625-11.656.004-.008-.004-.023 0-.032a173.412 173.412 0 0 0 2-4.03c.004-.009-.004-.024 0-.032.652-1.353 1.316-2.717 1.938-4.094.004-.009-.004-.022 0-.031a188.436 188.436 0 0 0 3.562-8.406c.004-.01-.004-.023 0-.031a197.63 197.63 0 0 0 1.625-4.313c.003-.009-.003-.022 0-.031a203.026 203.026 0 0 0 3.031-8.813c.003-.009-.003-.022 0-.03.47-1.49.935-2.991 1.375-4.5.003-.01-.003-.022 0-.032.44-1.51.87-3.032 1.281-4.562.003-.01-.003-.022 0-.032a235.633 235.633 0 0 0 3.344-14.094v-.03c.324-1.59.611-3.205.906-4.813v-.032c2.075-11.318 3.463-23.062 4.157-35.219v-.03c.098-1.729.178-3.476.25-5.22v-.03c.142-3.498.246-7.008.28-10.563v-.031c.018-1.783.01-3.578 0-5.375 0-.636-.021-1.271-.03-1.906.01-.635.03-1.27.03-1.906.01-1.797.018-3.592 0-5.375v-.032a335.136 335.136 0 0 0-.28-10.562v-.03a328.246 328.246 0 0 0-.25-5.22v-.03c-.694-12.158-2.082-23.9-4.157-35.22v-.031c-.295-1.608-.582-3.223-.906-4.813v-.03a235.665 235.665 0 0 0-3.344-14.095c-.003-.01.003-.021 0-.03-.41-1.531-.84-3.054-1.28-4.563-.004-.01.002-.022 0-.032a217.91 217.91 0 0 0-1.376-4.5c-.003-.009.003-.022 0-.03-.47-1.49-.968-2.971-1.468-4.438a201.8 201.8 0 0 0-1.563-4.375c-.003-.01.003-.023 0-.032a194.456 194.456 0 0 0-1.625-4.312c-.004-.009.004-.022 0-.031a186.776 186.776 0 0 0-3.562-8.406c-.004-.008.004-.023 0-.032-.622-1.376-1.286-2.74-1.938-4.093-.004-.008.004-.024 0-.032a173.412 173.412 0 0 0-2-4.03c-.004-.009.004-.024 0-.032-2.058-4.004-4.284-7.878-6.625-11.656-.005-.007.005-.023 0-.031-.777-1.255-1.597-2.49-2.406-3.719-.005-.007.005-.024 0-.031-2.437-3.7-5.024-7.26-7.75-10.72-.005-.005.005-.025 0-.03-.91-1.15-1.837-2.285-2.781-3.407-.005-.006.005-.025 0-.03a148.56 148.56 0 0 0-2.875-3.313c-.005-.006.005-.026 0-.032a147.023 147.023 0 0 0-12.5-12.469c-5.543-4.905-11.512-9.41-17.906-13.53a150.829 150.829 0 0 0-3.875-2.438 155.497 155.497 0 0 0-8.094-4.563c-1.383-.724-2.8-1.434-4.219-2.125a164.514 164.514 0 0 0-8.718-3.937c-1.49-.62-3.007-1.196-4.531-1.781a180.78 180.78 0 0 0-14.187-4.781 191.69 191.69 0 0 0-4.969-1.375 210.831 210.831 0 0 0-20.906-4.375 237.315 237.315 0 0 0-11.125-1.47c-9.459-1.032-19.371-1.563-29.781-1.563-7.02 0-13.652-.074-20 0-3.174.037-6.255.11-9.312.25-1.529.07-3.057.144-4.563.25-2.988.206-5.968.508-8.937.906-5.156.699-10.244 1.743-15.344 3.25a93.14 93.14 0 0 0-4.375 1.406 93.366 93.366 0 0 0-8.844 3.625c-.742.35-1.472.72-2.219 1.094l-109.94.25-12.156-31.312a8.307 8.307 0 0 0-1.468-2.281c-.01-.01-.022-.02-.031-.031-1.247-1.381-2.96-2.52-4.782-3.313a17.954 17.954 0 0 0-1.875-.687 18.3 18.3 0 0 0-.937-.25c-.314-.078-.627-.16-.938-.219a14.11 14.11 0 0 0-2.687-.25V7Z" style="fill:#000;fill-opacity:.99608;stroke:#191919;stroke:color(display-p3 .098 .098 .098);stroke-opacity:1"/><path fill="#fff" fill-opacity=".996" d="M557.583 7c-1.509.009-4.721.306-6.469.938l-3.5 1.5 8.656 35.844-124.81.28c-77.963.166-166.52-11.503-232.93-9.5-66.412 2.004-152.12 28-152.12 28l-13.687 3.782C13.473 73.14 7.005 165.21 7.005 234.624c0 1.113.027 2.253.032 3.375-.005 1.122-.032 2.262-.032 3.375 0 69.414 6.468 161.48 25.718 166.78l13.687 3.781s85.711 25.996 152.12 28c66.412 2.004 154.97-9.665 232.93-9.5l124.81.281-8.656 35.844 3.5 1.5c1.748.632 4.96.929 6.469.938.849.005 1.755-.074 2.688-.25.31-.058.623-.141.937-.219.305-.075.633-.157.937-.25a18.125 18.125 0 0 0 1.875-.687c1.822-.792 3.535-1.903 4.782-3.282l.03-.03a8.316 8.316 0 0 0 1.47-2.282l12.156-31.25 109.94.25c23.9 11.942 45.51 10.719 73.593 10.719 133.25 0 187.63-86.586 187-201.38 0-.78-.02-1.566-.031-2.344.012-.778.03-1.563.03-2.344.629-114.79-53.748-201.38-187-201.38-28.081 0-49.692-1.223-73.592 10.72l-109.94.25-12.156-31.25a8.317 8.317 0 0 0-1.47-2.282l-.03-.03c-1.247-1.38-2.96-2.49-4.782-3.282a17.987 17.987 0 0 0-1.875-.688c-.31-.092-.623-.175-.937-.25-.314-.077-.627-.16-.938-.218a14.141 14.141 0 0 0-2.687-.25v.01Z" style="fill:#fff;fill-opacity:.99608"/><path fill="#262626" fill-opacity=".996" d="M347.403 368.55c-33.364 0-65.307 1.8-94.811 5.063 25.66 48.714 97.985 30.265 205.56 31.53 49.686.585 89.543 1.88 121.53 2.375-47.16-23.334-133.53-38.969-232.28-38.969l.001.001Z" opacity=".9" style="fill:#262626;fill:color(display-p3 .149 .149 .149);fill-opacity:.99608"/><path fill="#000" fill-opacity=".996" d="M347.403 368.55c-3.206 0-6.383.03-9.562.063.818 16.17 6.428 30.257 14.594 38.844 4.671-.076 9.495-.197 14.437-.344-8.566-8.193-14.593-22.228-15.72-38.562-1.25-.005-2.494 0-3.75 0l.001-.001Z" opacity=".5" style="fill:#000;fill-opacity:.99608"/><path fill="#212121" stroke="#191919" stroke-width="5" d="m936.083 340.81-5.094.594c-21.545 2.512-37.688 25.979-39.28 54.53l-.376 7.126 5.25-4.844c15.89-14.68 28.303-32.507 37.406-52.75l2.09-4.65.004-.006Z" style="fill:#212121;fill:color(display-p3 .1294 .1294 .1294);fill-opacity:1;stroke:#191919;stroke:color(display-p3 .098 .098 .098);stroke-opacity:1"/><path stroke="#292929" stroke-linecap="round" stroke-linejoin="round" stroke-width="6" d="M730.533 351.81s79.677-22.596 105.38-31.982c26.839-9.802 98.859-39.146 98.859-39.146s-8.74 42.47-30.483 57.918c-77.23 54.87-232.69 53.85-232.69 53.85" opacity=".5" style="stroke:#292929;stroke:color(display-p3 .1608 .1608 .1608);stroke-opacity:1"/><path fill="url(#b)" d="m817.033 331.15-4.437 2.344c.989 1.157 1.795 2.428 2.375 3.844 4.797 11.717-10.736 29.236-26.875 35.78-.517.21-1.813.841-3.407 1.657l13.625-3.875c17.306-8.458 27.47-23.082 23-34-.916-2.238-2.375-4.166-4.28-5.75h-.001Z"/><path fill="url(#c)" d="m825.613 326.69-4.438 2.344c.99 1.157 1.796 2.428 2.375 3.844 4.798 11.717-10.736 29.236-26.875 35.78-.516.21-1.812.841-3.406 1.657l13.625-3.875c17.306-8.458 27.47-23.082 23-34-.916-2.238-2.375-4.166-4.28-5.75h-.001Z"/><path fill="url(#d)" d="m831.803 325.27-4.437 2.344c.989 1.157 1.795 2.428 2.375 3.844 4.797 11.717-10.736 29.236-26.875 35.78-.517.21-1.813.841-3.407 1.657l13.625-3.875c17.306-8.458 27.47-23.082 23-34-.916-2.238-2.375-4.166-4.28-5.75h-.001Z"/><path fill="url(#e)" d="m848.713 321-6.187 1.844c.96 1.713 1.654 3.532 2.03 5.469 3.12 16.034-20.961 34.284-43.03 38.5-3.395.648-28.884 8.576-32.158 8.804v4.125l41.439-12.148c26.285-5.496 44.949-22.448 41.875-38.25-.596-3.062-1.956-5.86-3.969-8.344Z"/><path fill="url(#f)" d="m848.713 321-6.187 1.844c.96 1.713 1.654 3.532 2.03 5.469 3.12 16.034-20.961 34.284-43.03 38.5-3.395.648-28.884 8.576-32.158 8.804v4.125l41.439-12.148c26.285-5.496 44.949-22.448 41.875-38.25-.596-3.062-1.956-5.86-3.969-8.344Z"/><path fill="url(#g)" d="m804.183 335.77-3.964 2.094a12.623 12.623 0 0 1 2.122 3.433c4.286 10.467-9.591 26.117-24.009 31.964-.461.188-1.619.751-3.042 1.48l12.17-3.462c15.46-7.555 24.54-20.62 20.547-30.373-.819-1.998-2.121-3.721-3.824-5.136Z"/><path fill="url(#h)" d="m790.383 339.34-3.964 2.094a12.623 12.623 0 0 1 2.122 3.433c4.286 10.467-9.591 26.117-24.008 31.964-.462.188-1.62.751-3.043 1.48l12.17-3.462c15.46-7.555 24.54-20.62 20.547-30.373-.819-1.998-2.122-3.721-3.825-5.136h.001Z"/><path fill="url(#i)" d="M180.333 359.03c8.293-2.023 15.486-1.479 19.797 5.787l-2.493 17.897c-6.876 6.173-13.75 4.951-20.625.156l3.32-23.84h.001Z"/><path fill="url(#j)" d="M200.603 362.3c8.15-1.21 15.167-.573 18.843 5.508l-2.373 17.034c-6.484 2.975-12.983 5.21-19.631.148l3.161-22.69Z"/><path fill="#191919" d="M347.403 366.06c-33.454 0-65.492 1.79-95.093 5.063l-3.656.406 1.718 3.25c6.672 12.664 16.562 21.113 29.062 26.438 12.501 5.324 27.572 7.612 45.093 8.437 35.042 1.65 79.954-2.631 133.59-2 49.66.585 89.508 1.879 121.53 2.375l1.125-4.75c-47.84-23.68-134.34-39.22-233.36-39.22l-.009.001Zm0 5c91.169 0 171.75 13.479 220.09 33.719-29.952-.582-65.212-1.606-109.31-2.125-53.937-.635-98.976 3.652-133.4 2.031-17.214-.81-31.767-3.105-43.406-8.062-10.453-4.452-18.485-11.154-24.5-20.906 28.307-2.983 58.735-4.656 90.53-4.656l-.004-.001Z" opacity=".9" style="fill:#191919;fill:color(display-p3 .098 .098 .098);fill-opacity:1"/><path fill="#262626" fill-opacity=".996" stroke="#191919" stroke-width="5" d="m207.563 120.69-77.749 12.469c-27.15 4.354-48.947 48.773-51 104.84 2.053 56.071 23.85 100.49 51 104.84l77.749 12.469c13.296 0 24-10.704 24-24v-186.62c0-13.296-10.704-24-24-24v.002Zm431.46-34.22c-2.97 0-5.893.332-8.781.969l-.031-.031-63.843 12.312c-17.728 6.604-32 14.272-32 32v212.56c0 17.728 14.272 25.395 32 32l63.843 12.312.03-.032c2.889.637 5.813.97 8.782.97 45.395 0 82.198-57.364 82.312-151.53-.114-94.17-36.916-151.53-82.312-151.53Z" opacity=".9" style="fill:#262626;fill:color(display-p3 .149 .149 .149);fill-opacity:.99608;stroke:#191919;stroke:color(display-p3 .098 .098 .098);stroke-opacity:1"/><path fill="#262626" fill-opacity=".996" d="M347.403 107.46c-33.364 0-65.307-1.8-94.811-5.063 25.66-48.714 97.985-30.265 205.56-31.53 49.686-.585 89.543-1.88 121.53-2.375-47.16 23.334-133.53 38.969-232.28 38.969l.001-.001Z" opacity=".9" style="fill:#262626;fill:color(display-p3 .149 .149 .149);fill-opacity:.99608"/><path fill="#000" fill-opacity=".996" d="M347.403 107.46c-3.206 0-6.383-.03-9.562-.063.818-16.17 6.428-30.257 14.594-38.844 4.671.076 9.495.197 14.437.344-8.566 8.193-14.593 22.228-15.72 38.562-1.25.005-2.494 0-3.75 0l.001.001Z" opacity=".5" style="fill:#000;fill-opacity:.99608"/><path fill="#212121" stroke="#191919" stroke-width="5" d="m936.083 135.2-5.094-.594c-21.545-2.512-37.688-25.979-39.28-54.53l-.376-7.126 5.25 4.844c15.89 14.68 28.303 32.507 37.406 52.75l2.094 4.656Z" style="fill:#212121;fill:color(display-p3 .1294 .1294 .1294);fill-opacity:1;stroke:#191919;stroke:color(display-p3 .098 .098 .098);stroke-opacity:1"/><path stroke="#292929" stroke-linecap="round" stroke-linejoin="round" stroke-width="6" d="M730.533 124.2s79.677 22.596 105.38 31.982c26.839 9.802 98.859 39.146 98.859 39.146s-8.74-42.47-30.483-57.918c-77.23-54.87-232.69-53.86-232.69-53.86" opacity=".5" style="stroke:#292929;stroke:color(display-p3 .1608 .1608 .1608);stroke-opacity:1"/><path fill="url(#k)" d="m817.033 144.86-4.437-2.344c.989-1.157 1.795-2.428 2.375-3.844 4.797-11.717-10.736-29.236-26.875-35.78-.517-.21-1.813-.841-3.407-1.657l13.625 3.875c17.306 8.458 27.47 23.082 23 34-.916 2.238-2.375 4.166-4.28 5.75h-.001Z"/><path fill="url(#l)" d="m825.613 149.32-4.438-2.344c.99-1.157 1.796-2.428 2.375-3.844 4.798-11.717-10.736-29.236-26.875-35.78-.516-.21-1.812-.841-3.406-1.657l13.625 3.875c17.306 8.458 27.47 23.082 23 34-.916 2.238-2.375 4.166-4.28 5.75h-.001Z"/><path fill="url(#m)" d="m831.803 150.73-4.437-2.344c.989-1.157 1.795-2.428 2.375-3.844 4.797-11.717-10.736-29.236-26.875-35.78-.517-.21-1.813-.841-3.407-1.657l13.625 3.875c17.306 8.458 27.47 23.082 23 34-.916 2.238-2.375 4.166-4.28 5.75h-.001Z"/><path fill="url(#n)" d="m848.713 155.01-6.187-1.844c.96-1.713 1.654-3.532 2.03-5.469 3.12-16.034-20.961-34.284-43.03-38.5-3.395-.648-28.884-8.576-32.158-8.804v-4.125l41.439 12.148c26.285 5.496 44.949 22.448 41.875 38.25-.596 3.062-1.956 5.86-3.969 8.344Z"/><path fill="url(#o)" d="m848.713 155.01-6.187-1.844c.96-1.713 1.654-3.532 2.03-5.469 3.12-16.034-20.961-34.284-43.03-38.5-3.395-.648-28.884-8.576-32.158-8.804v-4.125l41.439 12.148c26.285 5.496 44.949 22.448 41.875 38.25-.596 3.062-1.956 5.86-3.969 8.344Z"/><path fill="url(#p)" d="m804.183 140.24-3.964-2.094a12.623 12.623 0 0 0 2.122-3.433c4.286-10.467-9.591-26.117-24.009-31.964-.461-.188-1.619-.751-3.042-1.48l12.17 3.462c15.46 7.555 24.54 20.62 20.547 30.373-.819 1.998-2.121 3.721-3.824 5.136Z"/><path fill="url(#q)" d="m790.383 136.67-3.964-2.094a12.623 12.623 0 0 0 2.122-3.433c4.286-10.467-9.591-26.117-24.008-31.964-.462-.188-1.62-.75-3.043-1.48l12.17 3.462c15.46 7.555 24.54 20.62 20.547 30.373-.819 1.998-2.122 3.721-3.825 5.136h.001Z"/><path fill="url(#r)" d="M180.333 116.97c8.293 2.023 15.486 1.479 19.797-5.787l-2.493-17.897c-6.876-6.173-13.75-4.95-20.625-.156l3.32 23.84h.001Z"/><path fill="url(#s)" d="M200.603 113.71c8.15 1.21 15.167.573 18.843-5.508l-2.373-17.034c-6.484-2.975-12.983-5.21-19.631-.148l3.161 22.69Z"/><path fill="#191919" d="M347.403 109.95c-33.454 0-65.492-1.79-95.093-5.063l-3.656-.406 1.718-3.25c6.672-12.664 16.562-21.113 29.062-26.438 12.501-5.324 27.572-7.612 45.093-8.437 35.042-1.65 79.954 2.63 133.59 2 49.66-.585 89.508-1.88 121.53-2.375l1.125 4.75c-47.849 23.675-134.36 39.219-233.37 39.219h.001Zm0-5c91.169 0 171.75-13.48 220.09-33.72-29.952.583-65.212 1.607-109.31 2.126-53.937.635-98.976-3.652-133.4-2.031-17.214.81-31.767 3.105-43.406 8.062-10.453 4.452-18.485 11.154-24.5 20.906 28.307 2.983 58.735 4.656 90.53 4.656l-.004.001Z" opacity=".9" style="fill:#191919;fill:color(display-p3 .098 .098 .098);fill-opacity:1"/><path fill="#000" d="M22.33 209.291v24.115H67.8v-24.115H22.33Zm216.395 0v24.115H521.34v-24.115H238.725Zm496.777 0v24.115h211.293v-24.115H735.502ZM22.33 242.594v24.115H67.8v-24.115H22.33Zm216.395 0v24.115H521.34v-24.115H238.725Zm496.777 0v24.115h211.293v-24.115H735.502Z" style="fill:#000;fill-opacity:1"/></g><defs><linearGradient id="b" x1="826.702" x2="803.532" y1="352.958" y2="345.338" gradientUnits="userSpaceOnUse"><stop stop-color="#1A1A1A" style="stop-color:#1a1a1a;stop-color:color(display-p3 .102 .102 .102);stop-opacity:1"/><stop offset="1" stop-opacity="0" style="stop-color:none;stop-opacity:0"/></linearGradient><linearGradient id="c" x1="856.401" x2="844.641" y1="339.58" y2="339.64" gradientUnits="userSpaceOnUse"><stop stop-color="#1A1A1A" style="stop-color:#1a1a1a;stop-color:color(display-p3 .102 .102 .102);stop-opacity:1"/><stop offset="1" stop-opacity="0" style="stop-color:none;stop-opacity:0"/></linearGradient><linearGradient id="d" x1="854.588" x2="790.508" y1="347.3" y2="341.71" gradientUnits="userSpaceOnUse"><stop stop-color="#1A1A1A" style="stop-color:#1a1a1a;stop-color:color(display-p3 .102 .102 .102);stop-opacity:1"/><stop offset="1" stop-opacity="0" style="stop-color:none;stop-opacity:0"/></linearGradient><linearGradient id="e" x1="865.721" x2="852.261" y1="353.62" y2="346.59" gradientUnits="userSpaceOnUse"><stop stop-color="#1A1A1A" style="stop-color:#1a1a1a;stop-color:color(display-p3 .102 .102 .102);stop-opacity:1"/><stop offset="1" stop-opacity="0" style="stop-color:none;stop-opacity:0"/></linearGradient><linearGradient id="f" x1="849.211" x2="804.491" y1="363.27" y2="312.3" gradientUnits="userSpaceOnUse"><stop stop-color="#1A1A1A" style="stop-color:#1a1a1a;stop-color:color(display-p3 .102 .102 .102);stop-opacity:1"/><stop offset="1" stop-opacity="0" style="stop-color:none;stop-opacity:0"/></linearGradient><linearGradient id="g" x1="834.398" x2="760.601" y1="346.875" y2="347.991" gradientUnits="userSpaceOnUse"><stop stop-color="#1A1A1A" style="stop-color:#1a1a1a;stop-color:color(display-p3 .102 .102 .102);stop-opacity:1"/><stop offset="1" stop-opacity="0" style="stop-color:none;stop-opacity:0"/></linearGradient><linearGradient id="h" x1="813.444" x2="752.913" y1="358.619" y2="355.046" gradientUnits="userSpaceOnUse"><stop stop-color="#1A1A1A" style="stop-color:#1a1a1a;stop-color:color(display-p3 .102 .102 .102);stop-opacity:1"/><stop offset="1" stop-opacity="0" style="stop-color:none;stop-opacity:0"/></linearGradient><linearGradient id="i" x1="200.132" x2="177.006" y1="375.908" y2="367.173" gradientUnits="userSpaceOnUse"><stop stop-color="#1A1A1A" style="stop-color:#1a1a1a;stop-color:color(display-p3 .102 .102 .102);stop-opacity:1"/><stop offset="1" stop-opacity="0" style="stop-color:none;stop-opacity:0"/></linearGradient><linearGradient id="j" x1="219.446" x2="197.446" y1="378.371" y2="374.891" gradientUnits="userSpaceOnUse"><stop stop-color="#1A1A1A" style="stop-color:#1a1a1a;stop-color:color(display-p3 .102 .102 .102);stop-opacity:1"/><stop offset="1" stop-opacity="0" style="stop-color:none;stop-opacity:0"/></linearGradient><linearGradient id="k" x1="826.702" x2="803.532" y1="123.01" y2="130.63" gradientUnits="userSpaceOnUse"><stop stop-color="#1A1A1A" style="stop-color:#1a1a1a;stop-color:color(display-p3 .102 .102 .102);stop-opacity:1"/><stop offset="1" stop-opacity="0" style="stop-color:none;stop-opacity:0"/></linearGradient><linearGradient id="l" x1="856.401" x2="844.641" y1="136.45" y2="136.39" gradientUnits="userSpaceOnUse"><stop stop-color="#1A1A1A" style="stop-color:#1a1a1a;stop-color:color(display-p3 .102 .102 .102);stop-opacity:1"/><stop offset="1" stop-opacity="0" style="stop-color:none;stop-opacity:0"/></linearGradient><linearGradient id="m" x1="854.588" x2="790.508" y1="128.71" y2="134.3" gradientUnits="userSpaceOnUse"><stop stop-color="#1A1A1A" style="stop-color:#1a1a1a;stop-color:color(display-p3 .102 .102 .102);stop-opacity:1"/><stop offset="1" stop-opacity="0" style="stop-color:none;stop-opacity:0"/></linearGradient><linearGradient id="n" x1="865.721" x2="852.261" y1="122.41" y2="129.44" gradientUnits="userSpaceOnUse"><stop stop-color="#1A1A1A" style="stop-color:#1a1a1a;stop-color:color(display-p3 .102 .102 .102);stop-opacity:1"/><stop offset="1" stop-opacity="0" style="stop-color:none;stop-opacity:0"/></linearGradient><linearGradient id="o" x1="849.211" x2="804.491" y1="112.76" y2="163.73" gradientUnits="userSpaceOnUse"><stop stop-color="#1A1A1A" style="stop-color:#1a1a1a;stop-color:color(display-p3 .102 .102 .102);stop-opacity:1"/><stop offset="1" stop-opacity="0" style="stop-color:none;stop-opacity:0"/></linearGradient><linearGradient id="p" x1="834.398" x2="760.601" y1="129.115" y2="127.999" gradientUnits="userSpaceOnUse"><stop stop-color="#1A1A1A" style="stop-color:#1a1a1a;stop-color:color(display-p3 .102 .102 .102);stop-opacity:1"/><stop offset="1" stop-opacity="0" style="stop-color:none;stop-opacity:0"/></linearGradient><linearGradient id="q" x1="813.444" x2="752.913" y1="117.351" y2="120.924" gradientUnits="userSpaceOnUse"><stop stop-color="#1A1A1A" style="stop-color:#1a1a1a;stop-color:color(display-p3 .102 .102 .102);stop-opacity:1"/><stop offset="1" stop-opacity="0" style="stop-color:none;stop-opacity:0"/></linearGradient><linearGradient id="r" x1="200.138" x2="177.012" y1="100.209" y2="108.943" gradientUnits="userSpaceOnUse"><stop stop-color="#1A1A1A" style="stop-color:#1a1a1a;stop-color:color(display-p3 .102 .102 .102);stop-opacity:1"/><stop offset="1" stop-opacity="0" style="stop-color:none;stop-opacity:0"/></linearGradient><linearGradient id="s" x1="219.452" x2="197.451" y1="97.728" y2="101.207" gradientUnits="userSpaceOnUse"><stop stop-color="#1A1A1A" style="stop-color:#1a1a1a;stop-color:color(display-p3 .102 .102 .102);stop-opacity:1"/><stop offset="1" stop-opacity="0" style="stop-color:none;stop-opacity:0"/></linearGradient><clipPath id="a"><path fill="#fff" d="M0 0h960v476H0z" style="fill:#fff;fill-opacity:1"/></clipPath></defs></svg>